# xmcd
#
# Track frame offsets:
#	150
#	13113
#	24873
#	33806
#	45137
#	60470
#	73115
#	86305
#	98006
#	112097
#	125277
#	137687
#	155587
#	167750
#	179600
#
# Disc length: 2588 seconds
#
# Revision: 0
# Processed by: cddbd v1.5.2PL0 Copyright (c) Steve Scherf et al.
# Submitted via: EasyCDDAExtractor 16.0.9.1
#
DISCID=b50a1a0f
DTITLE=King Curtis and The Noble Knights - N-070 King Curtis  Soul Twist, The Co
DTITLE=mplete Enjoy Sessions   N-070
DYEAR=1900
DGENRE=soul
TTITLE0=Soul Twist
TTITLE1=Harmonica Twist
TTITLE2=Monkey Shout
TTITLE3=What'd I Say (part 1)
TTITLE4=What'd I Say (part 2)
TTITLE5=Twistin' With The King
TTITLE6=Irresistible You
TTITLE7=Wobble Twist
TTITLE8=Mr Crow
TTITLE9=I Know
TTITLE10=Twistin' Time
TTITLE11=Piping Hot
TTITLE12=Sack O' Woe
TTITLE13=Get With It
TTITLE14=Soul Twist (Alternative Take)
EXTD=
EXTT0=
EXTT1=
EXTT2=
EXTT3=
EXTT4=
EXTT5=
EXTT6=
EXTT7=
EXTT8=
EXTT9=
EXTT10=
EXTT11=
EXTT12=
EXTT13=
EXTT14=
PLAYORDER=
